# xmcd CD database file
#
# Track frame offsets:
#	150
#	35793
#	103368
#	140291
#	182224
#	210616
#
# Disc length: 3252 seconds
#
# Revision: 0
# Processed by: cddbd v1.5.2PL0 Copyright (c) Steve Scherf et al.
# Submitted via: CDex 1.70beta2
#
DISCID=5a0cb206
DTITLE=Eric Clapton with Mark Knopfler - After Midnight CD2
DYEAR=1988
DGENRE=Blues
TTITLE0=Bagde
TTITLE1=Same old blues
TTITLE2=Cocaine
TTITLE3=Layla
TTITLE4=Money for nothing
TTITLE5=Sunshine of your love
EXTD=YEAR: 1988
EXTT0=
EXTT1=
EXTT2=
EXTT3=
EXTT4=
EXTT5=
PLAYORDER=
